<svg xmlns="http://www.w3.org/2000/svg" width="1024" height="1024" viewBox="0 0 256 256" version="1.1" class="injected-svg" data-src="https://storage.googleapis.com/illustroke-c1d67.appspot.com/IpqcWBfhhpdtdS6pDf2SP9EpP7A3/6gwf7t7z5da2s6gyayeoug-1.svg" xmlns:xlink="http://www.w3.org/1999/xlink"><rect width="1024" height="1024" fill="white"/>
	<path fill="#dcf3fd" d="M 123.219 23.987 C 119.098 25.857, 109 35.146, 109 37.067 C 109 37.580, 113.302 38, 118.559 38 C 124.677 38, 127.896 38.360, 127.500 39 C 127.156 39.557, 122.529 40, 117.058 40 L 107.234 40 104.513 45.747 C 99.682 55.951, 97.980 64.934, 97.884 80.746 C 97.818 91.582, 97.457 95.400, 96.398 96.459 C 95.629 97.228, 95 98.255, 95 98.741 C 95 99.228, 93.666 100.904, 92.036 102.466 C 90.405 104.028, 89.333 105.729, 89.652 106.246 C 89.972 106.763, 87.225 110.121, 83.549 113.708 L 76.865 120.230 77.428 126.365 C 81.560 171.402, 81.424 170.435, 83.491 169.642 C 84.371 169.304, 84.709 169.596, 84.393 170.419 C 84.114 171.144, 84.506 173.254, 85.263 175.109 L 86.639 178.481 88.156 175.990 C 93.436 167.321, 93.098 167.669, 94.692 169.264 C 96.019 170.590, 95.857 171.215, 93.252 174.811 C 91.638 177.039, 89.525 181.380, 88.557 184.457 L 86.798 190.052 82.870 185.589 C 80.637 183.053, 76.295 179.805, 72.811 178.064 C 60.950 172.136, 45.985 174.479, 36.175 183.799 C 29.154 190.468, 26.752 195.721, 26.210 205.591 C 25.843 212.282, 26.129 214.502, 27.862 218.421 C 34.043 232.393, 46.858 240, 64.216 240 L 71.013 240 68.055 235.917 C 58.222 222.343, 69.879 204.659, 85.829 208.954 C 91.414 210.458, 96.693 216.712, 97.585 222.881 C 98.218 227.261, 99.486 230.005, 100.872 229.996 C 101.218 229.994, 102.324 227.988, 103.331 225.539 C 105.371 220.579, 111.459 214.542, 116.578 212.403 C 127.713 207.750, 143.605 215.274, 147.069 226.838 L 148.229 230.708 152.055 228.613 C 155.288 226.842, 156.348 226.693, 158.885 227.650 C 161.734 228.726, 161.921 228.638, 162.513 225.939 C 163.793 220.115, 169.961 214.998, 175.700 215.002 C 182.551 215.005, 189 221.597, 189 228.595 C 189 230.314, 187.875 233.379, 186.500 235.405 C 185.125 237.431, 184 239.294, 184 239.544 C 184 240.386, 196.438 239.995, 202.871 238.951 C 210.797 237.665, 216.244 234.992, 221.834 229.645 C 237.587 214.579, 234.295 190.702, 215 180.079 C 208.856 176.696, 208.008 176.504, 199.500 176.569 C 189.495 176.646, 184.565 178.300, 177.547 183.932 L 173.595 187.104 172.363 181.068 C 170.314 171.024, 166.082 165.991, 157.580 163.487 C 153.833 162.384, 153.418 161.914, 152.500 157.720 C 151.950 155.209, 151.208 152.865, 150.851 152.512 C 150.495 152.159, 151.380 150.071, 152.820 147.873 C 155.772 143.363, 156.099 143.524, 160.224 151.497 C 161.362 153.695, 162.827 155.945, 163.481 156.497 C 164.135 157.048, 166.432 159.723, 168.585 162.440 C 170.738 165.157, 173.463 168.432, 174.639 169.717 C 175.816 171.002, 177.841 173.613, 179.139 175.520 C 180.438 177.426, 181.761 178.989, 182.079 178.993 C 184.778 179.025, 189.628 156.861, 190.198 141.887 C 190.365 137.524, 185.751 126, 183.838 126 C 183.377 126, 183 124.715, 183 123.144 C 183 120.939, 181.424 118.728, 176.073 113.430 C 172.264 109.658, 169.248 106.331, 169.372 106.036 C 169.728 105.189, 164.165 100.168, 163.551 100.782 C 163.248 101.085, 163 100.883, 163 100.333 C 163 99.783, 163.291 99.042, 163.648 98.686 C 165.161 97.172, 163.994 71.661, 162.035 63.410 C 157.947 46.199, 147.303 29.821, 136.803 24.589 C 130.617 21.507, 128.856 21.429, 123.219 23.987 M 121.400 57.400 C 119.530 59.270, 118.002 61.407, 118.004 62.150 C 118.006 62.892, 118.915 62.012, 120.023 60.193 C 121.132 58.375, 123.493 56.255, 125.270 55.483 C 127.345 54.581, 127.838 54.064, 126.650 54.039 C 125.632 54.018, 123.270 55.530, 121.400 57.400 M 117.079 66.583 C 117.127 67.748, 117.364 67.985, 117.683 67.188 C 117.972 66.466, 117.936 65.603, 117.604 65.271 C 117.272 64.939, 117.036 65.529, 117.079 66.583 M 141 68.799 C 141 69.971, 139.603 72.521, 137.896 74.465 C 134.319 78.539, 134.691 79.218, 138.444 75.465 C 141.015 72.894, 142.753 68.419, 141.620 67.287 C 141.279 66.946, 141 67.626, 141 68.799 M 103.510 103 C 105.695 113.611, 112.423 130.907, 114.981 132.488 C 116.553 133.460, 116.237 132.413, 113.060 126.119 C 111.443 122.915, 108.886 116.066, 107.378 110.897 C 104.604 101.388, 102.144 96.365, 103.510 103 M 120.173 141.990 C 116.423 144.706, 116.103 145.278, 116.667 148.240 C 117.008 150.033, 117.437 151.677, 117.620 151.893 C 118.405 152.820, 143.004 152.434, 143.366 151.488 C 143.580 150.931, 143.247 148.922, 142.627 147.023 C 139.974 138.895, 128.115 136.237, 120.173 141.990 M 111.923 146.781 C 111.611 149.719, 110.791 151.519, 108.102 155.176 C 106.410 157.477, 105.132 159.439, 105.263 159.536 C 105.393 159.633, 106.963 159.991, 108.750 160.331 C 111.670 160.887, 112 160.711, 112 158.601 C 112 157.309, 112.675 154.338, 113.500 152 C 114.325 149.662, 115 147.628, 115 147.481 C 115 146.825, 111.992 146.140, 111.923 146.781 M 102.607 164.582 C 101.680 166.996, 101.838 167.157, 104 166 C 105.100 165.411, 106 164.495, 106 163.965 C 106 162.377, 103.262 162.875, 102.607 164.582" stroke="none" fill-rule="evenodd" fill-opacity="1"/>
	<path fill="#000000" d="M 121.882 25 C 119.892 26.052, 116.122 29.294, 113.503 32.206 L 108.742 37.500 127.871 37.772 C 139.491 37.937, 147 38.427, 147 39.022 C 147 39.626, 139.554 40, 127.520 40 L 108.041 40 106.158 43.750 C 100.222 55.574, 97.868 69.335, 98.684 87.437 L 99.228 99.500 88.614 109.893 L 78 120.285 78.020 125.393 C 78.049 132.635, 81.699 168.032, 82.499 168.832 C 83.150 169.484, 85.967 166.563, 91.012 160.005 C 93.262 157.080, 94.200 156.675, 100.012 156.120 L 106.500 155.500 109.066 150.500 C 115.504 137.957, 114.910 138.696, 117.281 140.271 C 119.178 141.530, 119.944 141.470, 123.817 139.757 C 131.512 136.353, 139.927 139.320, 143.133 146.569 C 145.330 151.535, 145.116 154.452, 141.777 165 C 137.302 179.139, 132.057 186.387, 127.551 184.658 C 124.622 183.534, 118.300 167.801, 115.432 154.500 C 114.816 151.646, 114.743 151.608, 113.937 153.716 C 113.471 154.935, 112.794 159.210, 112.433 163.216 C 111.862 169.542, 112.129 171.552, 114.463 178.500 C 115.941 182.900, 118.086 188.075, 119.229 190 C 124.216 198.395, 128.301 204.178, 129.595 204.675 C 130.362 204.969, 131.975 206.963, 133.179 209.105 C 134.383 211.247, 135.920 213, 136.595 213 C 139.625 213, 148.395 198.898, 151.831 188.500 C 153.891 182.267, 154.377 178.202, 154.140 169.163 C 154.011 164.229, 153.778 163.743, 151.059 162.716 C 145.400 160.580, 145.939 153.381, 152.266 146.611 L 156.835 141.723 160.430 148.861 C 162.407 152.788, 164.415 156, 164.892 156 C 165.369 156, 167.696 158.588, 170.063 161.750 C 174.249 167.343, 175.824 168.953, 177.139 168.985 C 178.117 169.008, 178.785 164.282, 181.006 141.620 L 183.052 120.740 173.026 111.282 L 163 101.824 163 86.306 C 163 71.718, 161.514 60.793, 159.083 57.500 C 158.677 56.950, 157.538 54.250, 156.552 51.500 C 152.111 39.113, 143.932 28.094, 136.592 24.611 C 132.115 22.486, 126.351 22.639, 121.882 25 M 122.898 55.263 C 115.750 60.024, 114.311 68.650, 119.613 74.953 C 129.497 86.699, 147.954 74.377, 141.225 60.525 C 137.729 53.331, 129.393 50.937, 122.898 55.263 M 122.349 58.319 C 119.346 61.071, 118.727 62.320, 118.727 65.630 C 118.727 70.687, 120.286 73.594, 124.314 76.050 C 128.151 78.389, 131.115 78.509, 135.033 76.483 C 142.937 72.396, 142.859 60.564, 134.901 56.449 C 130.256 54.047, 126.381 54.624, 122.349 58.319 M 102.589 102.669 C 105.796 116.267, 112.666 133, 115.042 133 C 116.484 133, 116.289 132.259, 112.561 123.541 C 110.669 119.119, 108.251 112.125, 107.188 108 C 105.852 102.819, 104.739 100.398, 103.588 100.169 C 102.230 99.900, 102.045 100.363, 102.589 102.669 M 182.651 141.750 C 181.727 149.313, 180.978 155.838, 180.986 156.250 C 180.994 156.662, 182.555 157, 184.455 157 C 188.298 157, 188.313 156.963, 189.454 144.500 C 189.913 139.487, 189.600 137.637, 187.548 133.250 C 186.197 130.363, 184.921 128, 184.711 128 C 184.501 128, 183.574 134.188, 182.651 141.750 M 149.651 158.468 C 149.341 159.275, 149.518 160.202, 150.044 160.527 C 150.570 160.852, 151 160.191, 151 159.059 C 151 156.644, 150.444 156.401, 149.651 158.468" stroke="none" fill-rule="evenodd" fill-opacity="1"/>
	<path fill="#7BDCB5" d="M 123.121 24.654 C 121.262 25.601, 117.497 28.653, 114.754 31.437 L 109.767 36.500 129.052 37.248 C 139.659 37.660, 148.563 37.770, 148.840 37.494 C 149.692 36.642, 143.533 29.658, 139.268 26.640 C 134.179 23.039, 127.827 22.258, 123.121 24.654 M 139.592 40.196 C 134.692 40.629, 130.457 41.209, 130.181 41.486 C 129.337 42.329, 129.325 48.362, 130.162 50.750 C 130.648 52.138, 131.771 53, 133.093 53 C 134.271 53, 137.038 54.803, 139.241 57.006 C 143.125 60.890, 143.233 61.179, 142.788 66.538 C 142.407 71.138, 141.762 72.650, 138.940 75.562 C 137.076 77.485, 134.267 79.392, 132.700 79.798 L 129.849 80.537 129.632 107.018 L 129.415 133.500 125.958 133.754 C 113.852 134.642, 112.055 135.604, 116.214 138.972 C 118.260 140.629, 118.808 140.652, 123.430 139.280 C 128.090 137.896, 129.793 137.929, 138.500 139.574 C 140.965 140.040, 142.284 139.468, 145.898 136.366 L 150.295 132.591 153.191 136.046 C 154.783 137.946, 158.187 142.875, 160.756 147 C 167.100 157.188, 174.841 167.725, 176.430 168.335 C 177.857 168.882, 178.902 161.556, 181.163 135.150 L 182.391 120.800 171.446 110.126 L 160.500 99.452 160.499 82.976 C 160.497 67.736, 160.289 65.846, 157.725 57.777 C 154.046 46.204, 151.490 40.385, 149.847 39.848 C 149.106 39.606, 144.491 39.762, 139.592 40.196 M 125.374 55.985 C 122.194 57.269, 119 62.369, 119.004 66.154 C 119.015 76.448, 130.076 80.947, 137.735 73.773 C 146.053 65.982, 136.097 51.655, 125.374 55.985 M 88.140 110.819 L 77.781 121.153 79.984 144.827 C 81.195 157.847, 82.257 168.576, 82.345 168.668 C 83.217 169.594, 89.843 160.848, 104.686 139.174 L 109.703 131.848 104.569 116.475 C 101.746 108.020, 99.225 100.963, 98.968 100.794 C 98.710 100.624, 93.838 105.135, 88.140 110.819 M 134.489 184.023 C 132.350 188.410, 130.236 192, 129.792 192 C 129.347 192, 127.314 188.625, 125.273 184.500 C 123.231 180.375, 121.229 177, 120.822 177 C 120.415 177, 120.321 180.262, 120.613 184.250 C 121.061 190.368, 121.725 192.437, 124.872 197.500 C 126.922 200.800, 129.248 203.500, 130.040 203.500 C 130.832 203.500, 132.888 201.143, 134.610 198.262 C 137.128 194.048, 137.878 191.441, 138.446 184.922 C 138.835 180.466, 138.979 176.646, 138.766 176.432 C 138.553 176.219, 136.628 179.635, 134.489 184.023" stroke="none" fill-rule="evenodd" fill-opacity="1"/>
	<path fill="#f4f4f4" d="M 134.917 26 C 134.871 26.550, 134.833 28.575, 134.833 30.500 C 134.833 37.339, 134.483 37, 141.557 37 L 148.113 37 146.307 33.894 C 145.313 32.186, 142.619 29.486, 140.320 27.894 C 135.768 24.743, 135.043 24.489, 134.917 26 M 149 41.513 C 149 41.795, 149.900 45.273, 151 49.243 C 152.809 55.769, 153 59.532, 153 88.548 C 153 114.529, 152.707 121.624, 151.460 125.822 C 149.923 130.997, 149.926 131.014, 152.673 134.457 C 154.187 136.355, 155.517 137.816, 155.627 137.704 C 156.086 137.239, 161.866 111.141, 162.442 106.935 C 162.956 103.180, 162.722 102.058, 161.122 100.610 C 159.320 98.980, 159.215 97.808, 159.686 84.675 C 160.127 72.360, 159.912 69.402, 158.046 62.132 C 155.518 52.286, 151.164 41, 149.894 41 C 149.402 41, 149 41.231, 149 41.513 M 125.487 56.379 C 118.451 59.473, 117.142 69.418, 123.111 74.440 C 131.355 81.377, 143.835 72.640, 139.687 62.836 C 137.019 56.528, 131.183 53.875, 125.487 56.379 M 98.397 107 C 98.753 110.575, 100.073 118.023, 101.331 123.551 C 102.850 130.232, 103.357 134.574, 102.841 136.501 C 102.415 138.095, 102.222 139.555, 102.413 139.746 C 102.603 139.936, 104.232 138.232, 106.033 135.958 L 109.307 131.824 106.555 124.162 C 105.041 119.948, 102.902 113.350, 101.800 109.500 C 99.041 99.855, 97.577 98.780, 98.397 107 M 171.666 113.428 C 171.375 114.187, 171.102 125.063, 171.061 137.595 L 170.986 160.380 173.613 164.351 C 175.575 167.315, 176.436 167.964, 177.013 166.911 C 177.625 165.794, 182.006 125.824, 182.001 121.407 C 182.001 120.805, 179.794 118.453, 177.098 116.180 C 173.546 113.185, 172.050 112.427, 171.666 113.428 M 118.750 134.728 C 114.176 135.207, 113.983 136.423, 118.139 138.572 C 120.595 139.842, 121.800 139.956, 123.686 139.097 C 126.813 137.672, 132.524 137.698, 136.555 139.156 C 139.378 140.177, 140.146 140.032, 143.111 137.921 L 146.470 135.529 142.485 134.822 C 138.366 134.092, 125.331 134.040, 118.750 134.728" stroke="none" fill-rule="evenodd" fill-opacity="1"/>
</svg>